<svg xmlns="http://www.w3.org/2000/svg" viewBox="0 0 900 620" role="img" aria-labelledby="title desc">
  <title id="title">Generated placeholder for Weslaco garage concrete coating</title>
  <desc id="desc">Abstract garage coating or reseal setting, for temporary layout review only.</desc>
  <defs>
    <linearGradient id="wall" x1="0" x2="1" y1="0" y2="1">
      <stop offset="0" stop-color="#ece9e0"/>
      <stop offset="1" stop-color="#c7c2b9"/>
    </linearGradient>
    <linearGradient id="floor" x1="0" x2="1" y1="0" y2="1">
      <stop offset="0" stop-color="#bfc0bb"/>
      <stop offset=".56" stop-color="#70736e"/>
      <stop offset="1" stop-color="#3b403d"/>
    </linearGradient>
  </defs>
  <rect width="900" height="620" fill="url(#wall)"/>
  <path d="M0 258h900v362H0z" fill="url(#floor)"/>
  <rect x="86" y="80" width="268" height="166" fill="#f8f4ea" opacity=".72"/>
  <rect x="602" y="92" width="180" height="124" fill="#ded7cb" opacity=".82"/>
  <g opacity=".42" fill="#f5efe4">
    <circle cx="170" cy="350" r="6"/><circle cx="220" cy="420" r="5"/><circle cx="304" cy="382" r="7"/>
    <circle cx="446" cy="470" r="5"/><circle cx="582" cy="368" r="6"/><circle cx="702" cy="452" r="7"/>
    <circle cx="788" cy="548" r="5"/><circle cx="118" cy="530" r="7"/>
  </g>
  <path d="M70 342h760M34 462h836M120 620 402 258M382 620 502 258M690 620 592 258" fill="none" stroke="#f8f2e7" stroke-opacity=".29" stroke-width="6"/>
  <path d="M0 258h900" stroke="#171717" stroke-opacity=".15" stroke-width="6"/>
</svg>
